<?xml version="1.0" encoding="UTF-8" standalone="no"?>
<svg
   viewBox="0 0 20 20"
   version="1.1"
   id="svg1"
   sodipodi:docname="linkedin-with-circle.svg"
   inkscape:version="1.3.2 (1:1.3.2+202404261509+091e20ef0f)"
   xmlns:inkscape="http://www.inkscape.org/namespaces/inkscape"
   xmlns:sodipodi="http://sodipodi.sourceforge.net/DTD/sodipodi-0.dtd"
   xmlns="http://www.w3.org/2000/svg"
   xmlns:svg="http://www.w3.org/2000/svg">
  <defs
     id="defs1" />
  <sodipodi:namedview
     id="namedview1"
     pagecolor="#ffffff"
     bordercolor="#000000"
     borderopacity="0.25"
     inkscape:showpageshadow="2"
     inkscape:pageopacity="0.0"
     inkscape:pagecheckerboard="0"
     inkscape:deskcolor="#d1d1d1"
     inkscape:zoom="95.103657"
     inkscape:cx="18.721678"
     inkscape:cy="18.842598"
     inkscape:window-width="1366"
     inkscape:window-height="696"
     inkscape:window-x="0"
     inkscape:window-y="0"
     inkscape:window-maximized="1"
     inkscape:current-layer="svg1" />
  <path
     d="m 10.015116,0.001087 c -5.514566,0 -9.984881,4.4768398 -9.984881,9.999455 C 0.030235,15.523158 4.50055,20 10.015116,20 15.529683,20 20,15.523158 20,10.000542 20,4.4779268 15.529683,0.001087 10.015116,0.001087 Z M 7.5709012,14.145109 H 5.5489625 V 7.6287971 H 7.5709012 Z M 6.5474507,6.8288407 c -0.6386162,0 -1.0515328,-0.4531002 -1.0515328,-1.0134866 0,-0.5718439 0.4253975,-1.0114033 1.0775351,-1.0114033 0.6521378,0 1.0515329,0.4395594 1.0640141,1.0114033 0,0.5603864 -0.4118763,1.0134866 -1.0900164,1.0134866 z m 8.4081033,7.3162683 h -2.021938 v -3.611263 c 0,-0.8405777 -0.293307,-1.4113799 -1.024492,-1.4113799 -0.558528,0 -0.890319,0.3864371 -1.036969,0.758292 -0.05408,0.1322839 -0.0676,0.3197729 -0.0676,0.5062219 v 3.757087 H 8.7815681 V 9.7068092 c 0,-0.8134973 -0.026001,-1.4936687 -0.053045,-2.0790535 h 1.7567159 l 0.09256,0.905159 h 0.04058 c 0.266261,-0.4249769 0.918401,-1.0520261 2.009456,-1.0520261 1.330278,0 2.327725,0.8926598 2.327725,2.8113044 z"
     id="path1"
     style="stroke-width:1.04084" />
</svg>
